HIERARCHY
ROOT Hips
{
	OFFSET 0.00000 0.00000 0.00000
	CHANNELS 6 Xposition Yposition Zposition Zrotation Yrotation Xrotation 
	JOINT LHipJoint
	{
		OFFSET 0 0 0
		CHANNELS 3 Zrotation Yrotation Xrotation
		JOINT LeftUpLeg
		{
			OFFSET 1.23340 -1.80723 0.69510
			CHANNELS 3 Zrotation Yrotation Xrotation
			JOINT LeftLeg
			{
				OFFSET 2.50056 -6.87023 0.00000
				CHANNELS 3 Zrotation Yrotation Xrotation
				JOINT LeftFoot
				{
					OFFSET 2.85931 -7.85591 0.00000
					CHANNELS 3 Zrotation Yrotation Xrotation
					JOINT LeftToeBase
					{
						OFFSET 0.21001 -0.57700 2.07823
						CHANNELS 3 Zrotation Yrotation Xrotation
						End Site
						{
							OFFSET 0.00000 -0.00000 1.08338
						}
					}
				}
			}
		}
	}
	JOINT RHipJoint
	{
		OFFSET 0 0 0
		CHANNELS 3 Zrotation Yrotation Xrotation
		JOINT RightUpLeg
		{
			OFFSET -1.40842 -1.80723 0.69510
			CHANNELS 3 Zrotation Yrotation Xrotation
			JOINT RightLeg
			{
				OFFSET -2.54876 -7.00266 0.00000
				CHANNELS 3 Zrotation Yrotation Xrotation
				JOINT RightFoot
				{
					OFFSET -2.74835 -7.55104 0.00000
					CHANNELS 3 Zrotation Yrotation Xrotation
					JOINT RightToeBase
					{
						OFFSET -0.22633 -0.62184 2.00890
						CHANNELS 3 Zrotation Yrotation Xrotation
						End Site
						{
							OFFSET -0.00000 -0.00000 1.05493
						}
					}
				}
			}
		}
	}
	JOINT LowerBack
	{
		OFFSET 0 0 0
		CHANNELS 3 Zrotation Yrotation Xrotation
		JOINT Spine
		{
			OFFSET -0.02340 2.02740 -0.12728
			CHANNELS 3 Zrotation Yrotation Xrotation
			JOINT Spine1
			{
				OFFSET -0.00862 2.03614 -0.01188
				CHANNELS 3 Zrotation Yrotation Xrotation
				JOINT Neck
				{
					OFFSET 0 0 0
					CHANNELS 3 Zrotation Yrotation Xrotation
					JOINT Neck1
					{
						OFFSET 0.03380 1.76650 0.27670
						CHANNELS 3 Zrotation Yrotation Xrotation
						JOINT Head
						{
							OFFSET -0.01114 1.80516 -0.21451
							CHANNELS 3 Zrotation Yrotation Xrotation
							End Site
							{
								OFFSET -0.00766 1.81942 -0.10287
							}
						}
					}
				}
				JOINT LeftShoulder
				{
					OFFSET 0 0 0
					CHANNELS 3 Zrotation Yrotation Xrotation
					JOINT LeftArm
					{
						OFFSET 3.22358 1.39475 0.18630
						CHANNELS 3 Zrotation Yrotation Xrotation
						JOINT LeftForeArm
						{
							OFFSET 5.45077 -0.00000 0.00000
							CHANNELS 3 Zrotation Yrotation Xrotation
							JOINT LeftHand
							{
								OFFSET 3.05488 -0.00000 0.00000
								CHANNELS 3 Zrotation Yrotation Xrotation
								JOINT LeftFingerBase
								{
									OFFSET 0 0 0
									CHANNELS 3 Zrotation Yrotation Xrotation
									JOINT LeftHandIndex1
									{
										OFFSET 0.63882 -0.00000 0.00000
										CHANNELS 3 Zrotation Yrotation Xrotation
										End Site
										{
											OFFSET 0.51503 -0.00000 0.00000
										}
									}
								}
								JOINT LThumb
								{
									OFFSET 0 0 0
									CHANNELS 3 Zrotation Yrotation Xrotation
									End Site
									{
										OFFSET 0.52290 -0.00000 0.52290
									}
								}
							}
						}
					}
				}
				JOINT RightShoulder
				{
					OFFSET 0 0 0
					CHANNELS 3 Zrotation Yrotation Xrotation
					JOINT RightArm
					{
						OFFSET -3.57143 1.14055 0.30691
						CHANNELS 3 Zrotation Yrotation Xrotation
						JOINT RightForeArm
						{
							OFFSET -4.88702 -0.00000 -0.00000
							CHANNELS 3 Zrotation Yrotation Xrotation
							JOINT RightHand
							{
								OFFSET -3.22603 -0.00000 0.00000
								CHANNELS 3 Zrotation Yrotation Xrotation
								JOINT RightFingerBase
								{
									OFFSET 0 0 0
									CHANNELS 3 Zrotation Yrotation Xrotation
									JOINT RightHandIndex1
									{
										OFFSET -0.71629 -0.00000 0.00000
										CHANNELS 3 Zrotation Yrotation Xrotation
										End Site
										{
											OFFSET -0.57749 -0.00000 0.00000
										}
									}
								}
								JOINT RThumb
								{
									OFFSET 0 0 0
									CHANNELS 3 Zrotation Yrotation Xrotation
									End Site
									{
										OFFSET -0.58631 -0.00000 0.58631
									}
								}
							}
						}
					}
				}
			}
		}
	}
}
MOTION
Frames: 13
Frame Time: .0083333
1.8781 18.5282 0.9119 0 0 0 0 0 0 -21 0 0 0 0 0 0 0 0 0 0 0 0 0 0 21 0 0 0 0 0 0 0 0 0 0 0 0 0 0 0 0 0 0 0 0 0 0 -16 0 0 21 0 0 11 0 0 0 -8 0 0 0 0 0 0 0 0 0 0 0 0 0 0 0 0 0 0 0 0 8 0 0 0 0 0 0 0 0 0 0 0 0 0 0 0 0 0
1.8781 18.5282 0.9119 136.4780 88.1029 148.7150 0.0000 0.0000 0.0000 -17.4201 2.0440 -15.1905 0.6368 5.1054 14.2094 0.3986 -5.9469 -11.3601 2.3058 -9.4759 -27.2956 0.0000 0.0000 0.0000 18.6819 -8.4838 -12.5170 -0.0570 -1.5401 4.2364 0.4564 13.2259 -1.3696 -0.3307 3.6959 -10.2228 0.3482 -0.3017 -10.0839 -0.3502 -0.3136 -3.3532 -0.5930 -0.1104 2.1638 2.3510 -0.0642 -18.2080 -0.7371 -0.5546 15.0998 -0.6909 -0.1908 7.6376 0.0000 -0.0000 0.0000 -81.9808 6.1680 16.2256 22.7949 -33.8638 -7.0237 -0.0000 0.0000 -168.5090 36.8634 -20.9607 -15.0152 -7.1250 0.0000 -0.0000 5.1337 4.4823 -4.7362 0.0000 -0.0000 0.0000 89.2639 -5.3357 15.0105 -23.1003 34.1983 -7.1946 0.0000 -0.0000 -161.1440 -25.8269 -7.7155 3.7178 7.1250 -0.0000 -0.0000 0.8634 -38.5381 0.1374
1.8761 18.5275 0.9112 135.8680 88.0846 148.1380 0.0000 0.0000 0.0000 -17.4512 2.0200 -15.1811 0.6319 5.0862 14.1546 0.4018 -5.9881 -11.4078 2.2015 -9.2737 -26.6553 0.0000 0.0000 0.0000 18.6605 -8.4528 -12.6068 -0.0594 -1.5724 4.3254 0.4558 13.2159 -1.3650 -0.3441 3.7691 -10.4280 0.3533 -0.3086 -10.0981 -0.3620 -0.3229 -3.3513 -0.6093 -0.1150 2.1733 2.4167 -0.0424 -18.1323 -0.7889 -0.5305 15.0376 -0.7154 -0.1812 7.6041 0.0000 0.0000 0.0000 -81.9502 6.1039 16.2465 22.8086 -33.8789 -7.0313 -0.0000 0.0000 -168.6230 36.8004 -21.0250 -15.0242 -7.1250 0.0000 -0.0000 5.0831 4.4243 -4.6947 0.0000 0.0000 0.0000 89.2540 -5.3936 15.0214 -23.2033 34.3104 -7.2526 0.0000 -0.0000 -161.1400 -25.7114 -7.6519 3.6685 7.1250 -0.0000 -0.0000 0.9586 -38.4592 0.1544
1.8758 18.5281 0.9087 135.3130 88.0393 147.5880 0.0000 0.0000 0.0000 -17.5119 2.0124 -15.2066 0.6356 5.1008 14.1964 0.4062 -6.0145 -11.4690 2.1606 -9.1929 -26.4008 0.0000 0.0000 0.0000 18.5976 -8.5235 -12.5313 -0.0549 -1.5116 4.1576 0.4567 13.1868 -1.2804 -0.3224 3.6499 -10.0938 0.3584 -0.3072 -10.0907 -0.3796 -0.3205 -3.3640 -0.6300 -0.1138 2.1560 2.3986 -0.0382 -18.0654 -0.7737 -0.5207 15.0374 -0.7061 -0.1758 7.5929 0.0000 -0.0000 0.0000 -81.8385 6.0895 16.6227 22.8830 -33.9607 -7.0728 -0.0000 0.0000 -168.8930 36.9545 -21.2482 -15.2507 -7.1250 0.0000 -0.0000 5.1360 4.1222 -4.7731 0.0000 -0.0000 0.0000 89.2545 -5.4533 14.7987 -23.2905 34.4050 -7.3018 0.0000 -0.0000 -161.2630 -26.0600 -7.4963 3.6505 7.1250 -0.0000 -0.0000 0.6478 -38.3124 0.1067
1.8744 18.5289 0.9074 136.9680 88.0763 149.2430 0.0000 0.0000 0.0000 -17.4516 2.1224 -15.2931 0.6391 5.1147 14.2361 0.4006 -6.1188 -11.4106 2.1924 -9.2559 -26.5992 0.0000 0.0000 0.0000 18.6693 -8.5558 -12.4499 -0.0507 -1.4525 3.9949 0.4550 13.1491 -1.2482 -0.3285 3.6839 -10.1890 0.4539 -0.3043 -10.0572 -0.3614 -0.3258 -3.3882 -0.6653 -0.1166 2.1120 2.4092 -0.0225 -18.0170 -0.7788 -0.4990 15.0879 -0.7070 -0.1646 7.6016 -0.0000 -0.0000 0.0000 -81.7107 6.1123 17.0059 22.9506 -34.0348 -7.1106 -0.0000 0.0000 -169.1880 36.9861 -21.4177 -15.3780 -7.1250 0.0000 -0.0000 5.1235 3.9158 -4.7812 -0.0000 -0.0000 0.0000 89.2351 -5.4427 14.6143 -23.2812 34.3949 -7.2965 0.0000 -0.0000 -161.4800 -26.4755 -7.1727 3.5584 7.1250 -0.0000 -0.0000 0.2709 -37.9823 0.0468
1.8728 18.5296 0.9074 137.1320 88.1118 149.4190 0.0000 0.0000 0.0000 -17.4228 2.1587 -15.3512 0.6431 5.1303 14.2806 0.4009 -6.1731 -11.4219 2.1816 -9.2345 -26.5317 0.0000 0.0000 0.0000 18.6943 -8.5739 -12.3417 -0.0453 -1.3732 3.7762 0.4541 13.0828 -1.1348 -0.3291 3.6868 -10.1970 0.4838 -0.2929 -10.0442 -0.3544 -0.3134 -3.4027 -0.6734 -0.1104 2.0898 2.4169 -0.0329 -18.0348 -0.7633 -0.5178 15.2048 -0.7058 -0.1702 7.6431 0.0000 0.0000 0.0000 -81.6369 6.0915 17.1534 22.9671 -34.0528 -7.1199 -0.0000 0.0000 -169.2760 37.0040 -21.4206 -15.3894 -7.1250 0.0000 -0.0000 5.1339 3.9075 -4.7918 0.0000 0.0000 0.0000 89.2240 -5.4531 14.5488 -23.2963 34.4113 -7.3051 0.0000 -0.0000 -161.4710 -26.5002 -6.9804 3.4675 7.1250 -0.0000 -0.0000 0.2387 -37.7700 0.0425
1.8704 18.5296 0.9075 138.8340 88.1314 151.1560 0.0000 0.0000 0.0000 -17.3739 2.2251 -15.4619 0.6475 5.1476 14.3301 0.3992 -6.2371 -11.4100 2.2570 -9.3821 -26.9980 0.0000 0.0000 0.0000 18.7586 -8.6265 -12.2555 -0.0392 -1.2784 3.5151 0.4543 13.0048 -0.9554 -0.3238 3.6573 -10.1144 0.5401 -0.2957 -10.0558 -0.3339 -0.3226 -3.4180 -0.6849 -0.1148 2.0800 2.4125 -0.0410 -18.0753 -0.7588 -0.5286 15.3499 -0.7056 -0.1735 7.6980 0.0000 0.0000 0.0000 -81.5476 6.0518 17.5441 22.9530 -34.0374 -7.1120 -0.0000 0.0000 -169.6110 36.7590 -21.3457 -15.2108 -7.1250 0.0000 -0.0000 4.9983 4.0618 -4.6498 0.0000 0.0000 0.0000 89.1907 -5.4402 14.5360 -23.2976 34.4126 -7.3058 0.0000 -0.0000 -161.5100 -26.3960 -7.0151 3.4688 7.1250 -0.0000 -0.0000 0.3300 -37.8015 0.0585
1.8692 18.5296 0.9058 138.9490 88.1153 151.2740 0.0000 0.0000 0.0000 -17.3964 2.2619 -15.5082 0.6502 5.1581 14.3602 0.3960 -6.2687 -11.3721 2.2964 -9.4579 -27.2385 0.0000 0.0000 0.0000 18.7395 -8.6952 -12.1480 -0.0341 -1.1914 3.2755 0.4535 12.9385 -0.8323 -0.3217 3.6460 -10.0828 0.5504 -0.3132 -10.0523 -0.3224 -0.3473 -3.4161 -0.6817 -0.1271 2.0796 2.3860 -0.0323 -18.1153 -0.7405 -0.5136 15.4733 -0.6941 -0.1647 7.7462 -0.0000 0.0000 0.0000 -81.4740 5.9841 17.9309 22.9148 -33.9955 -7.0906 -0.0000 0.0000 -170.0080 36.5158 -21.2826 -15.0421 -7.1250 0.0000 -0.0000 4.8613 4.2012 -4.5087 -0.0000 0.0000 0.0000 89.1441 -5.4180 14.5511 -23.3093 34.4253 -7.3124 0.0000 -0.0000 -161.4880 -26.4254 -7.0130 3.4722 7.1250 -0.0000 -0.0000 0.3047 -37.8012 0.0540
1.8684 18.5310 0.9038 139.5870 88.1098 151.9260 0.0000 0.0000 0.0000 -17.3779 2.1917 -15.5142 0.6516 5.1634 14.3752 0.3946 -6.2045 -11.3443 2.3010 -9.4667 -27.2665 0.0000 0.0000 0.0000 18.7528 -8.7402 -12.0880 -0.0312 -1.1394 3.1324 0.4511 12.9239 -0.8736 -0.3478 3.7892 -10.4844 0.5806 -0.3220 -10.0620 -0.3078 -0.3621 -3.4203 -0.6852 -0.1344 2.0802 2.3670 -0.0139 -18.1669 -0.7158 -0.4887 15.6081 -0.6805 -0.1500 7.8005 -0.0000 -0.0000 0.0000 -81.4346 5.9001 18.1138 22.9289 -34.0109 -7.0985 -0.0000 0.0000 -169.9920 36.5275 -21.2008 -14.9956 -7.1250 0.0000 -0.0000 4.8836 4.2930 -4.5211 -0.0000 -0.0000 0.0000 89.1028 -5.4059 14.5261 -23.3021 34.4175 -7.3083 0.0000 -0.0000 -161.4660 -26.5179 -7.0632 3.5110 7.1250 -0.0000 -0.0000 0.2283 -37.8634 0.0401
1.8680 18.5311 0.9026 141.7530 88.0999 154.0900 0.0000 0.0000 0.0000 -17.3139 2.1488 -15.4862 0.6497 5.1559 14.3537 0.3910 -6.1903 -11.2934 2.3010 -9.4667 -27.2665 0.0000 0.0000 0.0000 18.8160 -8.7807 -12.0970 -0.0311 -1.1381 3.1290 0.4497 12.9186 -0.9033 -0.3522 3.8131 -10.5515 0.6460 -0.3257 -10.0636 -0.2880 -0.3738 -3.4224 -0.7030 -0.1403 2.0783 2.3915 -0.0179 -18.2019 -0.7693 -0.4905 15.7155 -0.7030 -0.1536 7.8420 0.0000 -0.0000 0.0000 -81.4201 5.8260 18.2537 22.9834 -34.0707 -7.1290 -0.0000 0.0000 -169.8430 36.6101 -21.1336 -14.9954 -7.1250 0.0000 -0.0000 4.9465 4.3491 -4.5746 0.0000 -0.0000 0.0000 89.0507 -5.4336 14.5578 -23.3126 34.4288 -7.3142 0.0000 -0.0000 -161.4750 -26.5398 -7.0843 3.5248 7.1250 -0.0000 -0.0000 0.2107 -37.8884 0.0369
1.8664 18.5304 0.9014 141.6620 88.0660 154.0260 0.0000 0.0000 0.0000 -17.3500 2.1580 -15.5322 0.6507 5.1601 14.3657 0.3872 -6.2035 -11.2451 2.3570 -9.5731 -27.6051 0.0000 0.0000 0.0000 18.8004 -8.8093 -12.1122 -0.0295 -1.1092 3.0494 0.4491 12.8902 -0.8582 -0.3669 3.8909 -10.7699 0.5980 -0.3380 -10.0784 -0.2638 -0.3858 -3.4281 -0.6524 -0.1459 2.0808 2.3938 -0.0088 -18.1849 -0.8196 -0.4679 15.7642 -0.7176 -0.1472 7.8555 -0.0000 0.0000 0.0000 -81.4140 5.7665 18.4729 23.0468 -34.1399 -7.1645 -0.0000 0.0000 -169.8820 36.5643 -21.1892 -15.0073 -7.1250 0.0000 -0.0000 4.9082 4.2967 -4.5437 -0.0000 0.0000 0.0000 88.9720 -5.3652 14.5048 -23.2603 34.3723 -7.2847 0.0000 -0.0000 -161.4110 -26.5213 -7.1852 3.5717 7.1250 -0.0000 -0.0000 0.2323 -37.9995 0.0400
1.8645 18.5308 0.8987 139.8590 88.0036 152.2410 0.0000 0.0000 0.0000 -17.4511 2.1278 -15.5678 0.6540 5.1728 14.4021 0.3871 -6.2615 -11.2529 2.3680 -9.5939 -27.6714 0.0000 0.0000 0.0000 18.6875 -8.8707 -12.0634 -0.0270 -1.0615 2.9181 0.4512 12.8777 -0.7623 -0.3539 3.8220 -10.5764 0.5456 -0.3483 -10.0861 -0.2943 -0.3933 -3.4317 -0.6554 -0.1496 2.0815 2.4123 0.0036 -18.1478 -0.8357 -0.4515 15.7593 -0.7239 -0.1398 7.8476 0.0000 0.0000 0.0000 -81.3812 5.6603 18.5878 23.0334 -34.1253 -7.1570 -0.0000 0.0000 -169.8340 36.5972 -21.1859 -15.0224 -7.1250 0.0000 -0.0000 4.9290 4.2917 -4.5635 0.0000 0.0000 0.0000 88.9186 -5.3022 14.5816 -23.2028 34.3098 -7.2523 0.0000 -0.0000 -161.4580 -26.4662 -7.1921 3.5665 7.1250 -0.0000 -0.0000 0.2800 -38.0033 0.0482
1.8630 18.5303 0.8979 140.3960 88.0053 152.7720 0.0000 0.0000 0.0000 -17.4385 2.1567 -15.5823 0.6562 5.1814 14.4268 0.3870 -6.2924 -11.2576 2.3384 -9.5380 -27.4932 0.0000 0.0000 0.0000 18.7053 -8.8853 -12.0458 -0.0266 -1.0523 2.8927 0.4514 12.8719 -0.7428 -0.3495 3.7985 -10.5104 0.5816 -0.3353 -10.0659 -0.3017 -0.3792 -3.4370 -0.6814 -0.1427 2.0647 2.4445 0.0161 -18.0960 -0.8413 -0.4401 15.7575 -0.7295 -0.1328 7.8382 -0.0000 -0.0000 0.0000 -81.3276 5.5417 18.7548 23.0240 -34.1151 -7.1518 -0.0000 0.0000 -169.7950 36.7263 -21.1636 -15.0756 -7.1250 0.0000 -0.0000 5.0122 4.2828 -4.6420 -0.0000 -0.0000 0.0000 88.9223 -5.2963 14.5670 -23.2146 34.3227 -7.2590 0.0000 -0.0000 -161.4410 -26.4861 -7.0716 3.5103 7.1250 -0.0000 -0.0000 0.2560 -37.8706 0.0449
